<?xml version="1.0" encoding="UTF-8"?>
<svg id="Layer_1" data-name="Layer 1" xmlns="http://www.w3.org/2000/svg" viewBox="0 0 24 24">
  <defs>
    <style>
      .cls-1 {
        fill: #fff;
      }
    </style>
  </defs>
  <path class="cls-1" d="M18.35,4.42h-.8v-.07c0-.76-.62-1.38-1.38-1.38s-1.38.62-1.38,1.38v.07h-1.42v-.07c0-.76-.62-1.38-1.38-1.38s-1.38.62-1.38,1.38v.07h-1.42v-.07c0-.76-.62-1.38-1.38-1.38s-1.38.62-1.38,1.38v.07h-.8c-1.08,0-1.95.88-1.95,1.95v12.71c0,1.08.88,1.95,1.95,1.95h12.7c1.08,0,1.95-.88,1.95-1.95V6.37c0-1.08-.88-1.95-1.95-1.95ZM15.69,4.35c0-.26.21-.48.48-.48s.48.21.48.48v1.66c0,.26-.21.47-.48.47s-.48-.21-.48-.47v-1.66ZM11.52,4.35c0-.26.21-.48.48-.48s.47.21.47.48v1.66c0,.26-.21.47-.47.47s-.48-.21-.48-.47v-1.66ZM7.35,4.35c0-.26.21-.48.47-.48s.48.21.48.48v1.66c0,.26-.21.47-.48.47s-.47-.21-.47-.47v-1.66ZM19.4,19.08c0,.58-.47,1.05-1.05,1.05H5.65c-.58,0-1.05-.47-1.05-1.05V6.37c0-.58.47-1.05,1.05-1.05h.8v.69c0,.76.62,1.38,1.38,1.38s1.38-.62,1.38-1.38v-.69h1.42v.69c0,.76.62,1.38,1.38,1.38s1.38-.62,1.38-1.38v-.69h1.42v.69c0,.76.62,1.38,1.38,1.38s1.38-.62,1.38-1.38v-.69h.8c.58,0,1.05.47,1.05,1.05v12.71Z"/>
  <path class="cls-1" d="M17,10.04H7c-.25,0-.45.2-.45.45s.2.45.45.45h10c.25,0,.45-.2.45-.45s-.2-.45-.45-.45Z"/>
  <path class="cls-1" d="M14.85,12.96h-7.85c-.25,0-.45.2-.45.45s.2.45.45.45h7.85c.25,0,.45-.2.45-.45s-.2-.45-.45-.45Z"/>
  <path class="cls-1" d="M12.93,15.87h-5.92c-.25,0-.45.2-.45.45s.2.45.45.45h5.92c.25,0,.45-.2.45-.45s-.2-.45-.45-.45Z"/>
</svg>