<?xml version="1.0" encoding="UTF-8"?>
<svg id="Layer_1" data-name="Layer 1" xmlns="http://www.w3.org/2000/svg" viewBox="0 0 24 24">
  <defs>
    <style>
      .cls-1 {
        fill: #231f20;
      }
    </style>
  </defs>
  <path class="cls-1" d="M18.95,12.16v-5.29c0-1.08-.88-1.95-1.95-1.95h-.7v-.38c0-.76-.62-1.38-1.38-1.38s-1.38.62-1.38,1.38v.38h-4.53v-.38c0-.76-.62-1.38-1.38-1.38s-1.38.62-1.38,1.38v.38h-.7c-1.08,0-1.95.88-1.95,1.95v10.52c0,1.08.88,1.95,1.95,1.95h6.12c.94,1.28,2.44,2.11,4.15,2.11,2.85,0,5.17-2.32,5.17-5.17,0-1.69-.82-3.17-2.08-4.12ZM14.46,4.54c0-.26.21-.48.48-.48s.47.21.47.48v1.66c0,.26-.21.48-.47.48s-.48-.21-.48-.48v-1.66ZM7.18,4.54c0-.26.21-.48.47-.48s.48.21.48.48v1.66c0,.26-.21.48-.48.48s-.47-.21-.47-.48v-1.66ZM5.58,5.82h.7v.38c0,.76.62,1.38,1.38,1.38s1.38-.62,1.38-1.38v-.38h4.53v.38c0,.76.62,1.38,1.38,1.38s1.38-.62,1.38-1.38v-.38h.7c.58,0,1.05.47,1.05,1.05v2.09H4.53v-2.09c0-.58.47-1.05,1.05-1.05ZM5.58,18.44c-.58,0-1.05-.47-1.05-1.05v-7.53h13.52v1.76c-.67-.32-1.41-.51-2.2-.51-2.85,0-5.17,2.32-5.17,5.17,0,.77.18,1.5.49,2.16h-5.59ZM15.86,20.55c-2.36,0-4.27-1.92-4.27-4.27s1.92-4.27,4.27-4.27,4.27,1.92,4.27,4.27-1.92,4.27-4.27,4.27Z"/>
  <path class="cls-1" d="M16.3,16.01v-2.29c0-.25-.2-.45-.45-.45s-.45.2-.45.45v2.48c0,.06.01.12.03.17.02.04.04.08.07.11,0,.01.01.03.02.04l1.56,1.56c.09.09.2.13.32.13s.23-.04.32-.13c.18-.18.18-.46,0-.64l-1.43-1.43Z"/>
</svg>