<?xml version="1.0" encoding="UTF-8"?>
<svg id="Layer_1" data-name="Layer 1" xmlns="http://www.w3.org/2000/svg" viewBox="0 0 24 24">
  <defs>
    <style>
      .cls-1 {
        fill: #231f20;
      }
    </style>
  </defs>
  <path class="cls-1" d="M13.6,6.32v-.84c.72-.05,1.29-.64,1.29-1.37s-.62-1.38-1.38-1.38h-3.02c-.76,0-1.38.62-1.38,1.38s.57,1.32,1.29,1.37v.84c-3.41.74-5.97,3.77-5.97,7.4,0,4.18,3.4,7.57,7.57,7.57s7.57-3.4,7.57-7.57c0-3.63-2.56-6.66-5.97-7.4ZM10.01,4.12c0-.26.21-.48.48-.48h3.02c.26,0,.48.21.48.48s-.21.47-.48.47h-3.02c-.26,0-.48-.21-.48-.47ZM11.3,5.5h1.4v.69c-.23-.02-.46-.04-.7-.04s-.47.01-.7.04v-.69ZM12,20.4c-3.68,0-6.67-2.99-6.67-6.67s2.99-6.67,6.67-6.67,6.67,2.99,6.67,6.67-2.99,6.67-6.67,6.67Z"/>
  <path class="cls-1" d="M11.09,10.57c-.27-.19-.63-.21-.93-.05-.3.16-.48.46-.48.8v4.96c0,.34.18.64.48.8.13.07.27.1.42.1.18,0,.36-.05.51-.16l3.61-2.48c.24-.17.39-.45.39-.74s-.15-.57-.39-.74l-3.61-2.48ZM10.59,16.28v-4.96s3.61,2.48,3.61,2.48l-3.61,2.48Z"/>
</svg>